<svg width="64" height="50" viewBox="0 0 64 50" fill="none" xmlns="http://www.w3.org/2000/svg">
<path d="M57.1253 35.5356V44.5658C57.1253 46.7823 55.3284 48.5791 53.1119 48.5791H4.95087C2.73437 48.5791 0.9375 46.7823 0.9375 44.5658V16.4719C0.9375 14.2554 2.73437 12.4585 4.95087 12.4585H53.1119C55.3284 12.4585 57.1253 14.2554 57.1253 16.4719V31.5221M4.8715 8.44501C5.5075 7.67751 6.42875 7.14426 7.49713 7.01989L55.3347 1.44901C57.5364 1.19263 59.5291 2.76951 59.7855 4.97126L63.0352 32.8765C63.2916 35.0781 61.7148 37.0709 59.513 37.3273L57.1254 37.6053M6.95762 36.5389H14.9845M6.95762 41.5558H27.0246M18.9979 36.5389H27.0246M31.0381 36.5389H39.0649M43.0784 36.5389H51.1051M10.971 27.5088H12.9777M48.0316 28.5121C48.7084 27.1519 49.0985 25.622 49.0985 23.997C49.0985 22.372 48.7084 20.842 48.0316 19.4819M44.4334 26.7003C44.8405 25.8846 45.0851 24.9724 45.0851 23.997C45.0851 23.0216 44.8405 22.1094 44.4334 21.2938M40.8494 24.8955C40.9873 24.6249 41.0716 24.3225 41.0716 23.997C41.0716 23.6714 40.9873 23.3691 40.8494 23.0985M14.9845 31.5221H8.96437C7.85612 31.5221 6.95762 30.6238 6.95762 29.5154V25.502C6.95762 24.3938 7.856 23.4953 8.96437 23.4953H14.9845C16.0927 23.4953 16.9912 24.3936 16.9912 25.502V29.5154C16.9911 30.6238 16.0927 31.5221 14.9845 31.5221Z" stroke="url(#paint0_linear_452_5280)" stroke-width="2" stroke-miterlimit="10" stroke-linecap="round" stroke-linejoin="round"/>
<defs>
<linearGradient id="paint0_linear_452_5280" x1="0.9375" y1="48.5791" x2="46.3583" y2="-11.2581" gradientUnits="userSpaceOnUse">
<stop stop-color="#D0E58B"/>
<stop offset="1" stop-color="#A4C82D"/>
</linearGradient>
</defs>
</svg>
