<svg width="60" height="64" viewBox="0 0 60 64" fill="none" xmlns="http://www.w3.org/2000/svg">
<path d="M48.8779 40.9738L41.0044 45.2222C39.9807 45.7749 39.701 45.9095 39.6904 47.1497C39.6655 49.9418 40.4801 52.9039 41.9854 55.7102C43.4801 58.4953 45.414 60.8975 47.7976 62.322C48.7504 62.8924 49.0054 62.8924 49.9581 62.322C52.3384 60.8975 54.2757 58.4953 55.7669 55.7102C57.2721 52.9039 58.0867 49.9418 58.062 47.1497C58.0514 45.9095 57.7751 45.7749 56.748 45.2222L48.8779 40.9738ZM48.8779 40.9738L48.8779 27.0132C48.8779 25.2344 47.6842 23.7746 46.225 23.7746H4.59037C3.13112 23.7746 1.9375 25.2344 1.9375 27.0132V33.9864M43.473 58.1303H4.59037C3.13112 58.1303 1.9375 56.6741 1.9375 54.8917V45.2115M43.8165 23.7746V19.6678C43.8165 9.53757 35.5321 1.24994 25.4059 1.24994C15.2833 1.24994 6.99878 9.53757 6.99878 19.6678V23.7746M37.8202 23.7746V19.6678C37.8202 12.8471 32.2204 7.24869 25.4059 7.24869C18.5913 7.24869 12.9952 12.8506 12.9952 19.6678V23.7746M28.4625 34.6277H39.6159M28.4625 41.3777H36.159M1.9375 39.606V39.5989M16.4733 41.2075C19.3246 41.2075 21.6375 38.8938 21.6375 36.0415C21.6375 33.1891 19.3246 30.8754 16.4733 30.8754C13.6221 30.8754 11.3128 33.1891 11.3128 36.0415C11.3128 38.8938 13.6221 41.2075 16.4733 41.2075ZM16.4733 41.2075C12.4533 41.2075 8.5502 44.8289 8.5502 49.0737C8.5502 50.1509 9.43208 51.0296 10.5053 51.0296H22.4415C23.5181 51.0296 24.4001 50.1509 24.4001 49.0737C24.4001 44.8289 20.4933 41.2075 16.4733 41.2075ZM45.8885 52.135L48.0384 54.1478L52.4977 49.5733" stroke="url(#paint0_linear_452_5290)" stroke-width="2" stroke-miterlimit="10" stroke-linecap="round" stroke-linejoin="round"/>
<defs>
<linearGradient id="paint0_linear_452_5290" x1="1.9375" y1="62.7498" x2="63.1811" y2="6.85867" gradientUnits="userSpaceOnUse">
<stop stop-color="#D0E58B"/>
<stop offset="1" stop-color="#A4C82D"/>
</linearGradient>
</defs>
</svg>
