<svg width="64" height="64" viewBox="0 0 64 64" fill="none" xmlns="http://www.w3.org/2000/svg">
<g clip-path="url(#clip0_452_5264)">
<path d="M46.9531 23.1874H52.8031L48.1286 33.8213" stroke="url(#paint0_linear_452_5264)" stroke-width="2" stroke-miterlimit="10" stroke-linecap="round" stroke-linejoin="round"/>
<path d="M35.9921 30.6828H29.3145C29.3145 30.6828 32.85 24.2743 33.4335 23.5584C34.0235 22.8345 34.5821 23.286 34.6353 23.9245C34.6886 24.563 34.6087 33.8213 34.6087 33.8213" stroke="url(#paint1_linear_452_5264)" stroke-width="2" stroke-miterlimit="10" stroke-linecap="round" stroke-linejoin="round"/>
<path d="M27.5858 33.9013C27.5858 33.9013 22.412 33.9663 22.1669 33.8847C21.9219 33.8029 22.5598 33.3714 25.9519 28.5248C26.5854 27.6197 26.9341 26.856 27.0824 26.2163L27.135 25.8049C27.135 24.3022 25.9168 23.0839 24.414 23.0839C23.0916 23.0839 21.9896 24.0272 21.7441 25.2775" stroke="url(#paint2_linear_452_5264)" stroke-width="2" stroke-miterlimit="10" stroke-linecap="round" stroke-linejoin="round"/>
<path d="M43.3127 23.1874L39.042 33.9253" stroke="url(#paint3_linear_452_5264)" stroke-width="2" stroke-miterlimit="10" stroke-linecap="round" stroke-linejoin="round"/>
<path d="M3.04464 34.8649C1.59464 31.603 0.691144 28.1678 0.996894 24.9364C1.07302 24.1326 1.44514 23.3856 2.01602 22.8149L6.72614 18.1048C8.07389 16.757 10.3039 16.9193 11.4423 18.448L16.7625 25.5204C17.331 26.2763 17.2478 27.3371 16.568 27.9949L13.1218 31.33C12.6986 31.7394 12.6186 32.3885 12.9296 32.8885V32.8886C17.5164 40.2629 23.7374 46.4839 31.1116 51.0706C31.6115 51.3815 32.2606 51.3015 32.6701 50.8785L36.0051 47.4323C36.6629 46.7526 37.7239 46.6693 38.4798 47.2378L45.5521 52.558C47.0809 53.6964 47.2431 55.9264 45.8954 57.2741L41.1853 61.9843C40.5939 62.5755 39.8126 62.9378 38.9796 63.0111C27.6285 64.0108 13.809 50.1914 13.809 50.1914C13.809 50.1914 8.78239 45.1648 5.01152 38.6845" stroke="url(#paint4_linear_452_5264)" stroke-width="2" stroke-miterlimit="10" stroke-linecap="round" stroke-linejoin="round"/>
<path d="M19.9111 11.0871C29.0874 2.8614 43.2024 3.15827 52.022 11.9779C61.149 21.1049 61.149 35.9025 52.022 45.0295C49.4779 47.5737 46.4933 49.4085 43.3135 50.5343" stroke="url(#paint5_linear_452_5264)" stroke-width="2" stroke-miterlimit="10" stroke-linecap="round" stroke-linejoin="round"/>
<path d="M13.4375 20.7654C14.2682 18.3918 15.4934 16.1254 17.113 14.0683" stroke="url(#paint6_linear_452_5264)" stroke-width="2" stroke-miterlimit="10" stroke-linecap="round" stroke-linejoin="round"/>
<path d="M56.2413 10.3495C65.7359 21.1778 65.3182 37.6665 54.988 47.9965C52.5417 50.4429 49.7498 52.3334 46.7695 53.6679" stroke="url(#paint7_linear_452_5264)" stroke-width="2" stroke-miterlimit="10" stroke-linecap="round" stroke-linejoin="round"/>
<path d="M10.3506 17.1893C11.6841 14.2244 13.5685 11.4468 16.0037 9.0115C26.2156 -1.20037 42.4462 -1.7255 53.2771 7.43638" stroke="url(#paint8_linear_452_5264)" stroke-width="2" stroke-miterlimit="10" stroke-linecap="round" stroke-linejoin="round"/>
</g>
<defs>
<linearGradient id="paint0_linear_452_5264" x1="46.9531" y1="33.8213" x2="55.9349" y2="28.8802" gradientUnits="userSpaceOnUse">
<stop stop-color="#D0E58B"/>
<stop offset="1" stop-color="#A4C82D"/>
</linearGradient>
<linearGradient id="paint1_linear_452_5264" x1="29.3145" y1="33.8213" x2="38.8927" y2="27.8065" gradientUnits="userSpaceOnUse">
<stop stop-color="#D0E58B"/>
<stop offset="1" stop-color="#A4C82D"/>
</linearGradient>
<linearGradient id="paint2_linear_452_5264" x1="21.7441" y1="33.9258" x2="30.7988" y2="29.0472" gradientUnits="userSpaceOnUse">
<stop stop-color="#D0E58B"/>
<stop offset="1" stop-color="#A4C82D"/>
</linearGradient>
<linearGradient id="paint3_linear_452_5264" x1="39.042" y1="33.9253" x2="46.4169" y2="30.9921" gradientUnits="userSpaceOnUse">
<stop stop-color="#D0E58B"/>
<stop offset="1" stop-color="#A4C82D"/>
</linearGradient>
<linearGradient id="paint4_linear_452_5264" x1="0.9375" y1="63.0629" x2="46.811" y2="17.1896" gradientUnits="userSpaceOnUse">
<stop stop-color="#D0E58B"/>
<stop offset="1" stop-color="#A4C82D"/>
</linearGradient>
<linearGradient id="paint5_linear_452_5264" x1="19.9111" y1="50.5343" x2="64.7856" y2="12.0303" gradientUnits="userSpaceOnUse">
<stop stop-color="#D0E58B"/>
<stop offset="1" stop-color="#A4C82D"/>
</linearGradient>
<linearGradient id="paint6_linear_452_5264" x1="13.4375" y1="20.7654" x2="19.0869" y2="17.6649" gradientUnits="userSpaceOnUse">
<stop stop-color="#D0E58B"/>
<stop offset="1" stop-color="#A4C82D"/>
</linearGradient>
<linearGradient id="paint7_linear_452_5264" x1="46.7695" y1="53.6679" x2="75.3165" y2="42.931" gradientUnits="userSpaceOnUse">
<stop stop-color="#D0E58B"/>
<stop offset="1" stop-color="#A4C82D"/>
</linearGradient>
<linearGradient id="paint8_linear_452_5264" x1="10.3506" y1="17.1893" x2="21.1136" y2="-11.2395" gradientUnits="userSpaceOnUse">
<stop stop-color="#D0E58B"/>
<stop offset="1" stop-color="#A4C82D"/>
</linearGradient>
<clipPath id="clip0_452_5264">
<rect width="64" height="64" fill="white"/>
</clipPath>
</defs>
</svg>
