<svg width="73" height="68" viewBox="0 0 73 68" fill="none" xmlns="http://www.w3.org/2000/svg">
<path d="M32.291 61.3343L35.584 52.6883C35.6514 52.5237 35.8841 52.5236 35.9518 52.6878L39.2148 61.3343M33.3179 59.181H38.2043M43.0405 61.3343V52.5811L48.9586 61.1508C49.0683 61.3093 49.1857 61.2316 49.1857 61.0388L49.1039 52.5648M53.507 52.7037V61.0668M24.7661 57.1487L28.4499 61.3343M23.7087 52.5648V61.3343M36.8378 30.5619C36.3366 30.5619 35.8655 30.4361 35.4532 30.2142L33.5688 33.1208C32.5122 34.7502 30.3058 35.1625 28.7322 34.0229L26.2022 32.19C25.711 32.7354 25.0209 33.0964 24.2448 33.1523L26.6117 40.771H46.862L49.2861 33.1537C48.5156 33.1006 47.8269 32.7485 47.3345 32.213L44.949 33.9756C43.3769 35.1368 41.1503 34.7329 40.0881 33.0922L38.2222 30.2142C37.8099 30.4361 37.3388 30.5619 36.8378 30.5619ZM36.8378 30.5619C38.4533 30.5619 39.763 29.2524 39.763 27.6369C39.763 26.0215 38.4533 24.7117 36.8378 24.7117C35.2223 24.7117 33.9128 26.0215 33.9128 27.6369C33.9128 29.2524 35.2223 30.5619 36.8378 30.5619ZM30.5073 12.5068C21.43 15.2244 14.815 23.6385 14.815 33.6008C14.815 38.8897 16.6795 43.7442 19.7903 47.5396H53.8736C56.9842 43.7442 58.8489 38.8897 58.8489 33.6008C58.8489 23.5122 52.0644 15.0102 42.8108 12.4051M59.354 56.9502C59.354 59.2951 58.0525 61.1506 55.9878 61.1867C55.3006 61.1986 53.5242 61.2054 53.5242 61.2054C53.5242 61.2054 53.5133 58.1229 53.5133 56.9409C53.5133 55.9701 53.5071 52.6951 53.5071 52.6951H55.9174C58.182 52.6951 59.354 54.6053 59.354 56.9502ZM18.9145 54.583C18.9145 55.6975 18.0111 56.601 16.8965 56.601C16.3439 56.601 14.3492 56.6099 14.3492 56.6099V52.5651H16.8965C18.0111 52.5651 18.9145 53.4684 18.9145 54.583ZM19.7021 58.9635C19.7021 60.2672 18.6453 61.324 17.3416 61.324C16.695 61.324 14.3494 61.3343 14.3494 61.3343V56.603H17.3416C18.6453 56.603 19.7021 57.6598 19.7021 58.9635ZM28.45 54.8442C28.45 56.103 27.3462 57.1233 26.0418 57.1233C25.3949 57.1233 23.7277 57.1333 23.7277 57.1333C23.7277 57.1333 23.7173 55.4787 23.7173 54.8442C23.7173 54.3231 23.7115 52.5651 23.7115 52.5651H26.0418C27.3462 52.5651 28.45 53.5855 28.45 54.8442ZM71.0938 66.3509H1.90601L7.81254 57.1826L1.90601 47.5391H71.0938L65.6094 57.1826L71.0938 66.3509ZM65.8632 37.3499C66.7055 38.5438 67.0979 39.891 67.0979 41.2157C67.0979 43.9157 65.468 46.5229 62.6907 47.5396H10.3107C7.53335 46.5229 5.9021 43.9144 5.9021 41.2143C5.9021 39.8897 6.29445 38.5438 7.13539 37.3499C7.95664 36.1897 8.36586 34.8299 8.36586 33.473C8.36586 32.1158 7.95664 30.7574 7.13539 29.5958C6.29445 28.4033 5.9021 27.0577 5.9021 25.733C5.9021 22.9822 7.59382 20.3272 10.4654 19.3514C11.8126 18.8928 12.9418 18.035 13.7405 16.9368C14.5379 15.8385 15.0034 14.4983 15.0244 13.0752C15.0751 9.28816 18.1885 6.4391 21.7365 6.4391C22.3932 6.4391 23.0668 6.53768 23.7376 6.74566C24.3943 6.9483 25.0637 7.04815 25.7274 7.04815C27.8101 7.04815 29.8224 6.0777 31.1148 4.34801C32.4591 2.54941 34.4799 1.64941 36.4993 1.64941C38.5202 1.64941 40.5423 2.54941 41.8866 4.34801C43.5896 6.62754 46.5441 7.58674 49.261 6.74566C49.9333 6.53768 50.6068 6.4391 51.2637 6.4391C54.8129 6.4391 57.9265 9.28816 57.9769 13.0752C57.9952 14.4983 58.4621 15.8385 59.2594 16.9368C60.0596 18.035 61.1888 18.8928 62.536 19.3514C65.4076 20.3272 67.0979 22.9808 67.0979 25.7314C67.0979 27.0563 66.7055 28.4033 65.8632 29.5958C65.0434 30.7574 64.6341 32.1158 64.6341 33.473C64.6341 34.8299 65.0434 36.1897 65.8632 37.3499ZM52.4175 30.2363C52.4175 31.8518 51.1079 33.1614 49.4925 33.1614C47.877 33.1614 46.5674 31.8518 46.5674 30.2363C46.5674 28.6209 47.877 27.3112 49.4925 27.3112C51.1079 27.3112 52.4175 28.6209 52.4175 30.2363ZM26.9485 30.2363C26.9485 31.8518 25.6389 33.1614 24.0235 33.1614C22.408 33.1614 21.0984 31.8518 21.0984 30.2363C21.0984 28.6209 22.408 27.3112 24.0235 27.3112C25.6389 27.3112 26.9485 28.6209 26.9485 30.2363Z" stroke="url(#paint0_linear_368_2774)" stroke-width="2" stroke-miterlimit="10" stroke-linecap="round" stroke-linejoin="round"/>
<defs>
<linearGradient id="paint0_linear_368_2774" x1="1.90601" y1="66.3509" x2="66.4624" y2="-2.68169" gradientUnits="userSpaceOnUse">
<stop stop-color="#D0E58B"/>
<stop offset="1" stop-color="#A4C82D"/>
</linearGradient>
</defs>
</svg>
