<svg width="14" height="15" viewBox="0 0 14 15" fill="none" xmlns="http://www.w3.org/2000/svg">
<path d="M12.463 14.0144C10.9256 13.8755 9.45607 13.4631 8.05436 12.7772C6.65266 12.0913 5.41095 11.204 4.32923 10.1154C3.2475 9.02669 2.35888 7.78284 1.66338 6.38382C0.967865 4.98479 0.557607 3.51658 0.432607 1.97919C0.40483 1.68753 0.490142 1.43405 0.688545 1.21878C0.886962 1.0035 1.13498 0.895859 1.43261 0.895859H3.60884C3.86632 0.895859 4.08588 0.96931 4.2675 1.11621C4.44911 1.26312 4.57304 1.46264 4.63929 1.71478L5.07519 3.47917C5.1083 3.65652 5.10136 3.83253 5.05436 4.00721C5.00734 4.18189 4.916 4.33173 4.78032 4.45673L2.86365 6.33013C3.52177 7.50321 4.28914 8.52672 5.16575 9.40065C6.04235 10.2746 7.05651 11.0192 8.20823 11.6346L10.1746 9.69873C10.3241 9.54916 10.4729 9.45969 10.6208 9.43032C10.7687 9.40093 10.9217 9.4028 11.08 9.43592L12.7482 9.8029C13.0004 9.8638 13.1999 9.98918 13.3468 10.179C13.4937 10.3689 13.5671 10.5939 13.5671 10.8542V13.0144C13.5671 13.3894 13.4352 13.6533 13.1713 13.8061C12.9074 13.9588 12.6713 14.0283 12.463 14.0144ZM2.36848 5.27246L3.939 3.76605C3.96571 3.74467 3.98307 3.71529 3.99109 3.6779C3.9991 3.6405 3.99776 3.60578 3.98707 3.57373L3.62154 2.10738C3.61086 2.06464 3.59217 2.03259 3.56546 2.01123C3.53875 1.98986 3.50402 1.97917 3.46127 1.97917H1.66175C1.6297 1.97917 1.60298 1.98986 1.58161 2.01123C1.56025 2.03259 1.54957 2.0593 1.54957 2.09136C1.59229 2.61914 1.6855 3.14905 1.82921 3.68111C1.97291 4.21316 2.15266 4.74362 2.36848 5.27246ZM9.29473 12.1346C9.79291 12.3538 10.3138 12.5202 10.8575 12.6339C11.4011 12.7476 11.9059 12.8312 12.3717 12.8846C12.4037 12.8846 12.4304 12.8739 12.4518 12.8526C12.4732 12.8312 12.4839 12.8045 12.4839 12.7724V10.9776C12.4839 10.9348 12.4732 10.9001 12.4518 10.8734C12.4304 10.8467 12.3984 10.828 12.3556 10.8173L11.0015 10.524C10.9694 10.5133 10.9414 10.512 10.9173 10.52C10.8933 10.528 10.8679 10.5454 10.8412 10.5721L9.29473 12.1346Z" fill="#D2D4DA"/>
</svg>
