<svg width="73" height="72" viewBox="0 0 73 72" fill="none" xmlns="http://www.w3.org/2000/svg">
<path d="M38.9911 14.125C49.9767 15.3623 58.5148 24.6842 58.5148 36.0004C58.5148 48.1588 48.6585 58.0151 36.5001 58.0151C24.3416 58.0151 14.4852 48.1588 14.4852 36.0004C14.4852 24.694 23.0086 15.3783 33.9805 14.1283M71.1523 1.05469L62.3306 9.87637M66.7417 16.2475L71.1525 15.0441M55.8662 5.46622L57.0695 1.05537M1.84766 1.05469L10.6693 9.87637M6.2585 16.2475L1.84766 15.0441M17.134 5.46622L15.9307 1.05537M71.1523 70.9457L62.3306 62.124M66.7417 55.7541L71.1525 56.9574M55.8661 66.5348L57.0694 70.9457M1.8477 70.9457L10.6694 62.124M6.2585 55.7541L1.84766 56.9574M17.1339 66.5348L15.9306 70.9457M41.7863 40.1594L50.4405 31.5052C51.3047 30.641 51.3047 29.2401 50.4405 28.376L47.7207 25.6562C46.8566 24.792 45.4555 24.792 44.5914 25.6562L33.1224 37.1251L28.625 32.6277C27.7608 31.7635 26.3598 31.7635 25.4956 32.6277L22.5592 35.5642C21.6951 36.4283 21.6951 37.8294 22.5592 38.6934L30.0825 46.2168C31.6418 47.7759 34.1697 47.7759 35.7289 46.2168L38.3225 43.6233M40.5408 9.55837C41.9802 11.1224 44.193 11.7153 46.2216 11.0805C49.2874 10.1212 52.5184 11.9867 53.2205 15.1214C53.685 17.1956 55.3049 18.8154 57.3791 19.2799C60.5138 19.9821 62.3793 23.2131 61.4199 26.2788C60.785 28.3075 61.378 30.5202 62.9421 31.9597C65.3057 34.135 65.3057 37.8658 62.9421 40.0412C61.378 41.4807 60.785 43.6934 61.4199 45.7221C62.3793 48.7878 60.5138 52.0188 57.3791 52.7208C55.3049 53.1855 53.685 54.8053 53.2205 56.8795C52.5184 60.0142 49.2874 61.8796 46.2216 60.9202C44.193 60.2855 41.9802 60.8783 40.5408 62.4424C38.3655 64.8061 34.6345 64.8061 32.4592 62.4424C31.0198 60.8783 28.807 60.2855 26.7784 60.9202C23.7126 61.8796 20.4816 60.0142 19.7796 56.8795C19.315 54.8053 17.6951 53.1855 15.6209 52.7208C12.4862 52.0188 10.6207 48.7878 11.5802 45.7221C12.215 43.6934 11.622 41.4807 10.0579 40.0412C7.69431 37.8658 7.69431 34.135 10.0579 31.9597C11.622 30.5202 12.215 28.3075 11.5802 26.2788C10.6207 23.2131 12.4862 19.9821 15.6209 19.2799C17.6951 18.8154 19.315 17.1956 19.7796 15.1214C20.4816 11.9867 23.7126 10.1212 26.7784 11.0805C28.807 11.7153 31.0198 11.1224 32.4592 9.55837C34.6345 7.19461 38.3655 7.19461 40.5408 9.55837Z" stroke="url(#paint0_linear_368_2801)" stroke-width="2" stroke-miterlimit="10" stroke-linecap="round" stroke-linejoin="round"/>
<defs>
<linearGradient id="paint0_linear_368_2801" x1="1.84766" y1="70.9457" x2="71.7362" y2="1.64328" gradientUnits="userSpaceOnUse">
<stop stop-color="#D0E58B"/>
<stop offset="1" stop-color="#A4C82D"/>
</linearGradient>
</defs>
</svg>
