<svg width="65" height="72" viewBox="0 0 65 72" fill="none" xmlns="http://www.w3.org/2000/svg">
<path d="M16.1085 58.4435H8.44912C7.96312 58.4435 7.53309 58.7584 7.38628 59.2216L4.13643 69.475C3.90862 70.1938 4.44525 70.9268 5.19928 70.9268H59.8007C60.5548 70.9268 61.0914 70.1938 60.8636 69.475L57.6139 59.2216C57.4669 58.7584 57.0369 58.4435 56.5509 58.4435H20.8693M20.0951 52.8349H44.9049M1.49707 39.9561C1.49707 41.7029 2.91316 43.1192 4.66015 43.1192H60.3399C62.0867 43.1192 63.503 41.7029 63.503 39.9561M1.49707 39.9561V4.23522C1.49707 2.48824 2.91316 1.07214 4.66015 1.07214H60.3399C62.0867 1.07214 63.503 2.48824 63.503 4.23522V39.9561M1.49707 39.9561V35.0791H63.503V39.9561M30.3677 39.0995H34.6323M58.6229 18.4564V35.0791H6.37695V7.16717C6.37695 6.43071 6.97391 5.83376 7.71036 5.83376H57.2895C58.026 5.83376 58.6229 6.43071 58.6229 7.16717V13.6307M26.9982 14.0453L16.0452 26.8692M19.0058 16.7844L16.0452 20.1151M14.6773 62.7977H16.1084M20.4019 62.7977H21.8331M26.1266 62.7977H27.5577M31.8512 62.7977H33.2823M37.5758 62.7977H39.007M43.3005 62.7977H44.7316M48.8915 62.7977H50.3227M14.6772 66.5723H16.1084M20.4019 66.5723H21.833M26.1265 66.5723H27.5576M31.8511 66.5723H33.2822M37.5759 66.5723H39.0071M43.3005 66.5723H44.7317M48.8916 66.5723H50.3227M38.5479 43.1196H26.452C26.452 43.1196 26.339 50.2356 25.4335 52.8349H39.5666C38.6611 50.2356 38.5479 43.1196 38.5479 43.1196Z" stroke="url(#paint0_linear_368_2783)" stroke-width="2" stroke-miterlimit="10" stroke-linecap="round" stroke-linejoin="round"/>
<defs>
<linearGradient id="paint0_linear_368_2783" x1="1.49707" y1="70.9268" x2="70.8585" y2="9.35868" gradientUnits="userSpaceOnUse">
<stop stop-color="#D0E58B"/>
<stop offset="1" stop-color="#A4C82D"/>
</linearGradient>
</defs>
</svg>
