<svg width="22" height="18" viewBox="0 0 22 18" fill="none" xmlns="http://www.w3.org/2000/svg">
<path d="M1.13474 17.2307C0.921924 17.2307 0.743724 17.1589 0.600141 17.0153C0.456557 16.8717 0.384766 16.6935 0.384766 16.4807C0.384766 16.2679 0.456549 16.0897 0.600116 15.9461C0.743699 15.8025 0.921899 15.7308 1.13472 15.7308H20.8655C21.0783 15.7308 21.2565 15.8025 21.4001 15.9461C21.5436 16.0897 21.6154 16.2679 21.6154 16.4807C21.6154 16.6935 21.5436 16.8717 21.4001 17.0153C21.2565 17.1589 21.0783 17.2307 20.8655 17.2307H1.13474ZM3.30784 14.7308C2.80271 14.7308 2.37514 14.5558 2.02514 14.2058C1.67514 13.8558 1.50014 13.4282 1.50014 12.9231V2.53851C1.50014 2.03339 1.67514 1.60583 2.02514 1.25583C2.37514 0.905835 2.80271 0.730835 3.30784 0.730835H18.6924C19.1975 0.730835 19.6251 0.905835 19.9751 1.25583C20.3251 1.60583 20.5001 2.03339 20.5001 2.53851V12.9231C20.5001 13.4282 20.3251 13.8558 19.9751 14.2058C19.6251 14.5558 19.1975 14.7308 18.6924 14.7308H3.30784ZM3.30784 13.2308H18.6924C18.7693 13.2308 18.8398 13.1987 18.904 13.1346C18.9681 13.0705 19.0001 13 19.0001 12.9231V2.53851C19.0001 2.46158 18.9681 2.39106 18.904 2.32696C18.8398 2.26284 18.7693 2.23078 18.6924 2.23078H3.30784C3.23091 2.23078 3.16038 2.26284 3.09627 2.32696C3.03217 2.39106 3.00012 2.46158 3.00012 2.53851V12.9231C3.00012 13 3.03217 13.0705 3.09627 13.1346C3.16038 13.1987 3.23091 13.2308 3.30784 13.2308Z" fill="#ADD136"/>
</svg>
