<svg width="20" height="22" viewBox="0 0 20 22" fill="none" xmlns="http://www.w3.org/2000/svg">
<path d="M17.5 18.0001H6.5C5.95 18.0001 5.47917 17.8043 5.0875 17.4126C4.69583 17.021 4.5 16.5501 4.5 16.0001V2.00012C4.5 1.45012 4.69583 0.979289 5.0875 0.587622C5.47917 0.195955 5.95 0.00012207 6.5 0.00012207H13.5L19.5 6.00012V16.0001C19.5 16.5501 19.3042 17.021 18.9125 17.4126C18.5208 17.8043 18.05 18.0001 17.5 18.0001ZM12.5 7.00012V2.00012H6.5V16.0001H17.5V7.00012H12.5ZM2.5 22.0001C1.95 22.0001 1.47917 21.8043 1.0875 21.4126C0.695833 21.021 0.5 20.5501 0.5 20.0001V6.00012H2.5V20.0001H13.5V22.0001H2.5Z" fill="white"/>
</svg>
