<svg width="73" height="50" viewBox="0 0 73 50" fill="none" xmlns="http://www.w3.org/2000/svg">
<path d="M65.3055 44.1638C64.6382 46.654 62.0785 48.6728 59.5882 48.6728C57.0979 48.6728 55.62 46.654 56.2873 44.1638M65.3055 44.1638C65.9727 41.6735 64.4949 39.6547 62.0046 39.6547C59.5142 39.6547 56.9546 41.6735 56.2873 44.1638M65.3055 44.1638L66.4327 44.1638C67.678 44.1638 68.9578 43.1544 69.2913 41.9091L71.3657 34.1676C71.5779 33.3756 71.3591 32.6418 70.7891 32.2344L66.9776 29.5093M56.2873 44.1638H30.3601M60.8077 44.1638H60.7964M30.3601 44.1638C29.6929 46.654 27.1332 48.6728 24.6429 48.6728C22.1526 48.6728 20.6747 46.654 21.342 44.1638M30.3601 44.1638C31.0274 41.6735 29.5496 39.6547 27.0593 39.6547C24.5689 39.6547 22.0093 41.6735 21.342 44.1638M21.342 44.1638H15.7056C15.0831 44.1638 14.7137 43.6591 14.8804 43.0366L16.9949 35.1454M25.8623 44.1638H25.8511M47.7727 14.8551H55.1226C55.745 14.8551 56.1146 15.3598 55.9478 15.9824L48.3965 44.164M55.6457 17.1094H65.1963C66.2131 17.1094 66.9215 17.7899 66.9263 18.7707L66.9776 29.5093M66.9776 29.5093L59.0867 29.5097C57.8416 29.5097 57.1026 28.5003 57.4363 27.2552L58.3424 23.8733C58.6761 22.6282 59.9559 21.6188 61.201 21.6188H66.8374M71.1036 35.1456H68.8491M64.34 35.1456H50.8129M29.2432 15.3476L35.3727 9.2182M22.9729 21.6181L25.791 18.7999M27.4819 5.83664V6.96389M27.4819 27.2548V28.382M38.7545 17.1094H37.6273M17.3364 17.1094H16.2091M12.8273 31.7638H1.55469M11.7002 36.2724H4.93652M10.5728 40.782H8.3183M43.2635 17.1098C43.2635 25.8257 36.1978 32.8916 27.4817 32.8916C18.7657 32.8916 11.7 25.8257 11.7 17.1098C11.7 8.39385 18.7657 1.328 27.4817 1.328C36.1978 1.328 43.2635 8.39385 43.2635 17.1098ZM29.7363 17.1097C29.7363 18.3548 28.7269 19.3642 27.4818 19.3642C26.2366 19.3642 25.2273 18.3548 25.2273 17.1097C25.2273 15.8646 26.2366 14.8552 27.4818 14.8552C28.7269 14.8552 29.7363 15.8646 29.7363 17.1097Z" stroke="url(#paint0_linear_368_2764)" stroke-width="2" stroke-miterlimit="10" stroke-linecap="round" stroke-linejoin="round"/>
<defs>
<linearGradient id="paint0_linear_368_2764" x1="1.55469" y1="48.6728" x2="45.5224" y2="-16.2325" gradientUnits="userSpaceOnUse">
<stop stop-color="#D0E58B"/>
<stop offset="1" stop-color="#A4C82D"/>
</linearGradient>
</defs>
</svg>
