<svg width="59" height="68" viewBox="0 0 59 68" fill="none" xmlns="http://www.w3.org/2000/svg">
<path d="M57.7222 31.077C57.0686 30.4706 56.1869 30.158 55.2953 30.2267L52.9673 30.3997C52.3477 30.4453 51.883 30.9853 51.9291 31.6049C51.9747 32.2246 52.5081 32.6915 53.1343 32.6432L55.4623 32.4701C55.7392 32.4542 55.993 32.5415 56.1913 32.7255C56.3901 32.9107 56.5 33.1622 56.5 33.4336V43.5663C56.5 43.8377 56.3901 44.0892 56.1913 44.2744C55.993 44.4584 55.7397 44.5485 55.4623 44.5298L53.1343 44.3568C51.7166 44.2579 50.4207 45.072 49.9055 46.3964C49.783 46.7111 49.6533 47.0226 49.516 47.3308C48.9359 48.637 49.2721 50.14 50.3515 51.0689L52.1214 52.5943C52.3274 52.7723 52.4466 53.0195 52.4565 53.2909C52.4664 53.5622 52.3664 53.8171 52.1741 54.0094L45.0088 61.1741C44.8166 61.3664 44.5557 61.4707 44.2909 61.4564C44.0195 61.4466 43.7723 61.3273 43.5944 61.1214L42.0695 59.352C41.1395 58.2715 39.6387 57.9364 38.3292 58.5165C38.0226 58.6533 37.7117 58.7829 37.3981 58.9049C36.0715 59.4207 35.2513 60.7187 35.3568 62.1343L35.5298 64.4623C35.5496 64.7331 35.459 64.9924 35.2744 65.1912C35.0893 65.3901 34.8377 65.5 34.5663 65.5H24.4337C24.1623 65.5 23.9107 65.3901 23.7256 65.1912C23.541 64.9924 23.4504 64.7331 23.4702 64.4623L23.6432 62.1343C23.7487 60.7187 22.9285 59.4207 21.603 58.9054C21.2883 58.7829 20.9774 58.6533 20.6692 58.5159C19.3629 57.9364 17.8594 58.2726 16.9311 59.3515L15.4056 61.1214C15.2277 61.3274 14.9805 61.4466 14.7091 61.4564C14.4427 61.4724 14.1834 61.3664 13.9906 61.1741L6.82587 54.0088C6.63361 53.8171 6.53363 53.5622 6.54352 53.2909C6.55341 53.0195 6.67261 52.7723 6.8786 52.5943L8.64795 51.0694C9.7279 50.14 10.0641 48.637 9.48346 47.3302C9.34668 47.0226 9.21704 46.7111 9.0951 46.398C8.57984 45.0714 7.29994 44.2535 5.86566 44.3568L3.53766 44.5298C3.26519 44.5474 3.00757 44.4584 2.80871 44.2744C2.60986 44.0893 2.5 43.8377 2.5 43.5663V33.4336C2.5 33.1623 2.60987 32.9107 2.80871 32.7256C3.00757 32.5415 3.26574 32.4547 3.53766 32.4701L5.86566 32.6432C7.29114 32.7514 8.57984 31.929 9.09455 30.603C9.21705 30.2882 9.34668 29.9773 9.48401 29.6692C10.0641 28.3629 9.72791 26.86 8.6485 25.9311L6.8786 24.4056C6.6726 24.2276 6.55341 23.9804 6.54352 23.7091C6.53363 23.4377 6.63361 23.1828 6.82587 22.9911C7.26533 22.5517 7.26533 21.8392 6.82642 21.3998C6.38696 20.9603 5.6745 20.9608 5.23505 21.3992C4.60499 22.0293 4.26221 22.9016 4.29517 23.792C4.32814 24.683 4.73408 25.5279 5.40973 26.1096L7.18018 27.6356C7.50263 27.913 7.60206 28.3634 7.42792 28.7546C7.27685 29.094 7.13403 29.4379 6.99781 29.7867C6.844 30.1844 6.46002 30.4294 6.03266 30.3998L3.70465 30.2267C2.80926 30.1564 1.93091 30.4706 1.27777 31.0771C0.624625 31.6835 0.25 32.5426 0.25 33.4336V43.5663C0.25 44.4573 0.624636 45.3164 1.27777 45.9229C1.93091 46.5288 2.8109 46.8419 3.70465 46.7732L6.03266 46.6002C6.46002 46.5678 6.844 46.8155 6.99836 47.2149C7.13404 47.5615 7.27686 47.9048 7.42738 48.2438C7.60206 48.6365 7.50263 49.087 7.17964 49.3649L5.40975 50.8904C4.73408 51.4721 4.32814 52.317 4.29519 53.2079C4.26222 54.0984 4.605 54.9707 5.23507 55.6002L12.3992 62.7649C13.0293 63.395 13.9033 63.7433 14.7921 63.7048C15.6831 63.6719 16.5279 63.2659 17.1096 62.5903L18.6356 60.8198C18.9136 60.4979 19.3646 60.3974 19.7546 60.5721C20.0941 60.7231 20.4379 60.866 20.7868 61.0022C21.1845 61.1571 21.4311 61.5449 21.3998 61.9673L21.2268 64.2953C21.1603 65.1847 21.4707 66.0691 22.0771 66.7222C22.6835 67.3754 23.5427 67.75 24.4337 67.75H34.5664C35.4574 67.75 36.3165 67.3754 36.9229 66.7222C37.5294 66.0691 37.8397 65.1847 37.7733 64.2953L37.6002 61.9673C37.5689 61.5449 37.8156 61.1571 38.2144 61.0016C38.5621 60.866 38.906 60.7231 39.2438 60.5726C39.6382 60.3963 40.087 60.4979 40.365 60.8204L41.8904 62.5902C42.4721 63.2659 43.317 63.6719 44.208 63.7048C45.0929 63.7444 45.9702 63.395 46.6002 62.7649L53.765 55.6007C54.395 54.9707 54.7378 54.0984 54.7049 53.2079C54.6719 52.3169 54.266 51.4721 53.5903 50.8904L51.8199 49.3644C51.4974 49.087 51.398 48.6365 51.5721 48.2443C51.7232 47.9048 51.866 47.5615 52.0022 47.2132C52.1566 46.8161 52.5406 46.5678 52.9674 46.6002L55.2954 46.7732C56.1853 46.8408 57.0686 46.5288 57.7223 45.9229C58.3754 45.3164 58.75 44.4573 58.75 43.5663V33.4336C58.75 32.5426 58.3754 31.6835 57.7222 31.077Z" fill="url(#paint0_linear_368_2805)"/>
<path d="M16.089 26.7825C15.5941 26.4018 14.8887 26.4952 14.5114 26.9879C11.9532 30.314 10.6013 34.2944 10.6013 38.5C10.6013 48.9205 19.0795 57.3986 29.5 57.3986C39.9205 57.3986 48.3987 48.9205 48.3987 38.5C48.3987 36.106 47.957 33.7731 47.0853 31.5648C46.8579 30.9875 46.2047 30.7046 45.6257 30.9315C45.0479 31.1594 44.7644 31.8131 44.9924 32.391C45.7598 34.335 46.1487 36.39 46.1487 38.5C46.1487 47.6801 38.6802 55.1486 29.5 55.1486C20.3198 55.1486 12.8513 47.6801 12.8513 38.5C12.8513 34.7954 14.0422 31.2891 16.2944 28.3601C16.6735 27.8674 16.5812 27.161 16.089 26.7825Z" fill="url(#paint1_linear_368_2805)"/>
<path d="M22.1315 25.1686C23.2311 25.1686 24.3359 25.0217 25.4276 24.7651C26.5929 26.6618 27.4199 28.8106 27.5179 31.144C27.4691 35.1655 27.7048 39.7913 28.3591 45.1384C28.4319 45.7579 29.0074 46.1957 29.6126 46.1184C30.2289 46.0426 30.6679 45.4818 30.5926 44.8649C29.9388 38.2278 28.3906 31.2801 33.2058 26.6774C35.4769 28.0348 38.0455 28.7304 40.6226 28.7304C42.8528 28.7304 45.0858 28.2162 47.1281 27.1774C51.6869 24.8588 54.6927 20.2346 54.9729 15.1084C54.9949 14.7058 54.7999 14.3223 54.4615 14.1032C50.1543 11.3099 44.6457 11.0154 40.0875 13.3341C35.8128 15.5086 32.9035 19.7112 32.327 24.4527C31.4517 25.2525 30.6357 26.1657 29.9308 27.2079C30.3196 21.5671 31.3378 17.4887 32.4583 14.6098C35.5284 14.5496 38.4276 13.0246 40.1831 10.4766C42.1161 7.67123 42.4073 4.00894 40.9428 0.919024C40.7698 0.554827 40.4155 0.310376 40.0139 0.279068C36.5939 0.0115538 33.287 1.59029 31.3545 4.39454C29.5061 7.0783 29.1779 10.5404 30.4322 13.5404C29.3702 16.1987 28.4088 19.7683 27.8959 24.5058C27.5813 23.9179 27.2398 23.3517 26.8749 22.8083C27.7363 18.1664 26.2713 13.3371 22.9153 9.98164C19.2992 6.36495 13.9697 4.93837 9.0105 6.26057C8.62104 6.3644 8.31671 6.66871 8.2129 7.05817C6.89125 12.0185 8.31726 17.3469 11.9334 20.9636C14.6575 23.6876 18.3533 25.1686 22.1315 25.1686ZM41.1076 15.3397C44.7573 13.4841 49.1287 13.6137 52.6718 15.6456C52.2269 19.7067 49.7572 23.3157 46.108 25.1719C42.6095 26.9502 38.4562 26.8843 34.9961 25.088C38.8558 22.1747 43.4616 21.4165 43.7784 21.3673C44.392 21.2728 44.8133 20.6988 44.7194 20.0852C44.6255 19.4716 44.0564 19.0476 43.4389 19.1431C43.3608 19.1552 39.1797 19.8332 35.1125 22.3576C36.1104 19.3571 38.2343 16.801 41.1076 15.3397ZM33.2079 5.67115C34.5598 3.70844 36.7988 2.5318 39.1685 2.50049C39.9837 4.72578 39.6827 7.2378 38.3308 9.19996C37.1999 10.8405 35.447 11.9214 33.5193 12.2535C34.9921 9.42023 36.3483 8.40378 36.4027 8.365C36.9119 8.01783 37.0476 7.32404 36.7043 6.81042C36.3588 6.29352 35.66 6.15564 35.1437 6.50006C34.9858 6.60566 33.5414 7.63062 31.951 10.3782C31.8292 8.73179 32.2486 7.06339 33.2079 5.67115ZM10.2338 8.28205C14.2362 7.44599 18.4302 8.67755 21.3245 11.5724C23.6303 13.8786 24.8584 17.0117 24.8494 20.212C21.736 16.7264 18.2497 14.6516 17.9913 14.5009C17.4579 14.1894 16.768 14.3685 16.4537 14.9052C16.1401 15.4413 16.3208 16.1301 16.8564 16.4438C16.9209 16.4816 20.9412 18.8741 24.0263 22.7475C20.2058 23.3515 16.2772 22.1257 13.5242 19.3727C10.6299 16.4779 9.39942 12.2805 10.2338 8.28205Z" fill="url(#paint2_linear_368_2805)"/>
<defs>
<linearGradient id="paint0_linear_368_2805" x1="0.25" y1="67.75" x2="67.0649" y2="9.84389" gradientUnits="userSpaceOnUse">
<stop stop-color="#D0E58B"/>
<stop offset="1" stop-color="#A4C82D"/>
</linearGradient>
<linearGradient id="paint1_linear_368_2805" x1="0.25" y1="67.75" x2="67.0649" y2="9.84389" gradientUnits="userSpaceOnUse">
<stop stop-color="#D0E58B"/>
<stop offset="1" stop-color="#A4C82D"/>
</linearGradient>
<linearGradient id="paint2_linear_368_2805" x1="0.25" y1="67.75" x2="67.0649" y2="9.84389" gradientUnits="userSpaceOnUse">
<stop stop-color="#D0E58B"/>
<stop offset="1" stop-color="#A4C82D"/>
</linearGradient>
</defs>
</svg>
