<svg class="icon icon-menu" viewBox="0 0 19 13" fill="none" xmlns="http://www.w3.org/2000/svg">
<path d="M4.49316 12.1314C3.84272 12.1314 3.29047 11.904 2.83641 11.449C2.38235 10.9941 2.15533 10.4416 2.15533 9.79171H0.911743V1.7565C0.911743 1.38139 1.04126 1.06432 1.30028 0.80529C1.55931 0.546262 1.87638 0.416748 2.25147 0.416748H13.431V3.2565H15.6425L18.3348 7.02894V9.79171H16.9951C16.9951 10.4416 16.7674 10.9941 16.3121 11.449C15.8568 11.904 15.3039 12.1314 14.6534 12.1314C14.003 12.1314 13.4507 11.904 12.9967 11.449C12.5426 10.9941 12.3156 10.4416 12.3156 9.79171H6.83479C6.83479 10.4434 6.60713 10.9963 6.15181 11.4504C5.6965 11.9044 5.14362 12.1314 4.49316 12.1314ZM4.49506 11.0481C4.84783 11.0481 5.14543 10.9269 5.38785 10.6845C5.63026 10.4421 5.75147 10.1445 5.75147 9.79171C5.75147 9.43893 5.63026 9.14133 5.38785 8.89892C5.14543 8.6565 4.84783 8.53529 4.49506 8.53529C4.14226 8.53529 3.84466 8.6565 3.60224 8.89892C3.35983 9.14133 3.23862 9.43893 3.23862 9.79171C3.23862 10.1445 3.35983 10.4421 3.60224 10.6845C3.84466 10.9269 4.14226 11.0481 4.49506 11.0481ZM1.99506 8.70841H2.43095C2.60828 8.33021 2.88526 8.02625 3.26187 7.79654C3.63848 7.56683 4.04954 7.45198 4.49506 7.45198C4.92989 7.45198 5.33828 7.5655 5.72022 7.79254C6.10217 8.01957 6.37854 8.32486 6.54935 8.70841H12.3476V1.50006H2.25147C2.18738 1.50006 2.12861 1.52677 2.07518 1.58019C2.02176 1.63362 1.99506 1.69239 1.99506 1.7565V8.70841ZM14.6553 11.0481C15.0081 11.0481 15.3057 10.9269 15.5481 10.6845C15.7905 10.4421 15.9117 10.1445 15.9117 9.79171C15.9117 9.43893 15.7905 9.14133 15.5481 8.89892C15.3057 8.6565 15.0081 8.53529 14.6553 8.53529C14.3025 8.53529 14.0049 8.6565 13.7625 8.89892C13.5201 9.14133 13.3989 9.43893 13.3989 9.79171C13.3989 10.1445 13.5201 10.4421 13.7625 10.6845C14.0049 10.9269 14.3025 11.0481 14.6553 11.0481ZM13.431 7.20841L17.1233 7.18758L15.064 4.33979H13.431V7.20841Z" fill="#ADD136"/>
</svg>
