<svg width="14" height="17" viewBox="0 0 14 17" fill="none" xmlns="http://www.w3.org/2000/svg">
<path d="M7.0024 8.33332C7.41948 8.33332 7.77332 8.18717 8.0639 7.89486C8.3545 7.60254 8.4998 7.24784 8.4998 6.83076C8.4998 6.41368 8.35364 6.05984 8.06134 5.76926C7.76902 5.47866 7.41432 5.33336 6.99723 5.33336C6.58015 5.33336 6.22632 5.47952 5.93573 5.77182C5.64514 6.06414 5.49984 6.41884 5.49984 6.83593C5.49984 7.25301 5.64599 7.60684 5.9383 7.89743C6.23061 8.18802 6.58532 8.33332 7.0024 8.33332ZM6.99982 14.8766C8.70175 13.3563 9.9814 11.9118 10.8388 10.5432C11.6962 9.17447 12.1248 7.99343 12.1248 7.00001C12.1248 5.42201 11.6326 4.14557 10.6481 3.17068C9.66355 2.19577 8.44747 1.70832 6.99982 1.70832C5.55216 1.70832 4.33608 2.19577 3.35157 3.17068C2.36705 4.14557 1.8748 5.42201 1.8748 7.00001C1.8748 7.99343 2.30348 9.17447 3.16086 10.5432C4.01823 11.9118 5.29789 13.3563 6.99982 14.8766ZM6.99982 16.6731C4.82782 14.7585 3.20843 13.0037 2.14165 11.4087C1.07489 9.81357 0.541504 8.34541 0.541504 7.00418C0.541504 4.96829 1.18814 3.35445 2.4814 2.16268C3.77466 0.970913 5.2808 0.375031 6.99982 0.375031C8.71883 0.375031 10.225 0.970913 11.5182 2.16268C12.8115 3.35445 13.4581 4.96829 13.4581 7.00418C13.4581 8.34541 12.9247 9.81357 11.858 11.4087C10.7912 13.0037 9.17182 14.7585 6.99982 16.6731Z" fill="#D2D4DA"/>
</svg>
