<svg width="16" height="13" viewBox="0 0 16 13" fill="none" xmlns="http://www.w3.org/2000/svg">
<path d="M1.75625 12.0833C1.38114 12.0833 1.06407 11.9537 0.805046 11.6945C0.546018 11.4353 0.416504 11.1181 0.416504 10.7427V2.25052C0.416504 1.87519 0.546018 1.55905 0.805046 1.3021C1.06407 1.04516 1.38114 0.916687 1.75625 0.916687H14.2434C14.6185 0.916687 14.9356 1.04628 15.1946 1.30548C15.4536 1.56467 15.5831 1.88194 15.5831 2.25727V10.7495C15.5831 11.1248 15.4536 11.441 15.1946 11.6979C14.9356 11.9548 14.6185 12.0833 14.2434 12.0833H1.75625ZM7.99982 7.13138L1.49982 3.30606V10.7436C1.49982 10.8184 1.52386 10.8798 1.57194 10.9279C1.62002 10.976 1.68146 11 1.75625 11H14.2434C14.3182 11 14.3796 10.976 14.4277 10.9279C14.4758 10.8798 14.4998 10.8184 14.4998 10.7436V3.30606L7.99982 7.13138ZM7.99982 5.72917L14.3716 2H1.62802L7.99982 5.72917ZM1.49982 3.30606V2V10.7436C1.49982 10.8184 1.52386 10.8798 1.57194 10.9279C1.62002 10.976 1.68146 11 1.75625 11H1.49982V3.30606Z" fill="#D2D4DA"/>
</svg>
