<svg width="21" height="20" viewBox="0 0 21 20" fill="none" xmlns="http://www.w3.org/2000/svg">
<rect width="20" height="20" transform="translate(0.288086)" fill="#F3F4F8"/>
<path d="M8.62174 12.5003L12.9467 10.0003L8.62174 7.50033V12.5003ZM18.2551 5.97533C18.3634 6.36699 18.4384 6.89199 18.4884 7.55866C18.5467 8.22533 18.5717 8.80033 18.5717 9.30033L18.6217 10.0003C18.6217 11.8253 18.4884 13.167 18.2551 14.0253C18.0467 14.7753 17.5634 15.2587 16.8134 15.467C16.4217 15.5753 15.7051 15.6503 14.6051 15.7003C13.5217 15.7587 12.5301 15.7837 11.6134 15.7837L10.2884 15.8337C6.79674 15.8337 4.62174 15.7003 3.76341 15.467C3.01341 15.2587 2.53008 14.7753 2.32174 14.0253C2.21341 13.6337 2.13841 13.1087 2.08841 12.442C2.03008 11.7753 2.00508 11.2003 2.00508 10.7003L1.95508 10.0003C1.95508 8.17533 2.08841 6.83366 2.32174 5.97533C2.53008 5.22533 3.01341 4.74199 3.76341 4.53366C4.15508 4.42533 4.87174 4.35033 5.97175 4.30033C7.05508 4.24199 8.04674 4.21699 8.96341 4.21699L10.2884 4.16699C13.7801 4.16699 15.9551 4.30033 16.8134 4.53366C17.5634 4.74199 18.0467 5.22533 18.2551 5.97533Z" fill="#101223"/>
</svg>
