<svg width="19" height="20" viewBox="0 0 19 20" fill="none" xmlns="http://www.w3.org/2000/svg">
<path d="M2.47955e-05 19.0384V2.3077C2.47955e-05 1.80257 0.175025 1.375 0.525025 1.025C0.875025 0.675 1.30259 0.5 1.80773 0.5H17.1923C17.6974 0.5 18.125 0.675 18.475 1.025C18.825 1.375 19 1.80257 19 2.3077V13.6922C19 14.1974 18.825 14.625 18.475 14.975C18.125 15.325 17.6974 15.5 17.1923 15.5H3.53848L2.47955e-05 19.0384ZM1.5 15.4154L2.9154 14H17.1923C17.282 14 17.3558 13.9711 17.4135 13.9134C17.4712 13.8557 17.5 13.782 17.5 13.6922V2.3077C17.5 2.21795 17.4712 2.14423 17.4135 2.08652C17.3558 2.02882 17.282 1.99997 17.1923 1.99997H1.80773C1.71798 1.99997 1.64425 2.02882 1.58655 2.08652C1.52885 2.14423 1.5 2.21795 1.5 2.3077V15.4154ZM1.5 2.3077V1.99997V15.4154V2.3077ZM6.79618 11.9615L9.5 10.3211L12.2038 11.9615L11.4865 8.8865L13.8846 6.81922L10.7289 6.55382L9.5 3.65385L8.27115 6.55382L5.1154 6.81922L7.51348 8.8865L6.79618 11.9615Z" fill="#ADD136"/>
</svg>
