<svg width="16" height="17" viewBox="0 0 16 17" fill="none" xmlns="http://www.w3.org/2000/svg">
<path d="M10.9357 11.8974L11.7097 11.1234L8.54146 7.95494V3.5H7.45817V8.41987L10.9357 11.8974ZM8.00121 16.0833C6.95661 16.0833 5.97473 15.886 5.05555 15.4912C4.13636 15.0965 3.33085 14.5534 2.639 13.8619C1.94714 13.1703 1.40376 12.3642 1.00886 11.4434C0.613955 10.5226 0.416504 9.53876 0.416504 8.49185C0.416504 7.44494 0.613865 6.46059 1.00859 5.53881C1.40331 4.61702 1.94643 3.81367 2.63796 3.12877C3.3295 2.44385 4.13566 1.90394 5.05644 1.50904C5.97722 1.11414 6.96106 0.916687 8.00796 0.916687C9.05488 0.916687 10.0393 1.11571 10.9611 1.51377C11.883 1.91183 12.6849 2.45203 13.3668 3.1344C14.0488 3.81677 14.5886 4.61919 14.9864 5.54167C15.3842 6.46412 15.5831 7.44977 15.5831 8.4986C15.5831 9.5432 15.3858 10.5251 14.991 11.4443C14.5963 12.3635 14.0567 13.169 13.3721 13.8608C12.6875 14.5527 11.8836 15.0961 10.9604 15.491C10.0373 15.8859 9.05085 16.0833 8.00121 16.0833ZM8.00975 15C9.80805 15 11.3393 14.3646 12.6035 13.0938C13.8677 11.8229 14.4998 10.2884 14.4998 8.49006C14.4998 6.69177 13.8677 5.16052 12.6035 3.89631C11.3393 2.6321 9.80805 2 8.00975 2C6.21146 2 4.6769 2.6321 3.40607 3.89631C2.13523 5.16052 1.49982 6.69177 1.49982 8.49006C1.49982 10.2884 2.13523 11.8229 3.40607 13.0938C4.6769 14.3646 6.21146 15 8.00975 15Z" fill="#D2D4DA"/>
</svg>
