<svg width="20" height="20" viewBox="0 0 20 20" fill="none" xmlns="http://www.w3.org/2000/svg">
<path d="M11.9038 19.0538C11.6161 19.341 11.2595 19.4845 10.8342 19.4845C10.4088 19.4845 10.0526 19.341 9.76538 19.0538L0.965375 10.2538C0.820508 10.1089 0.706733 9.94218 0.62405 9.75355C0.54135 9.56493 0.5 9.36374 0.5 9.14997V1.99997C0.5 1.59101 0.647758 1.23877 0.943275 0.943275C1.23878 0.647758 1.59101 0.5 1.99998 0.5H9.14998C9.35638 0.5 9.55408 0.540283 9.7431 0.62085C9.93213 0.7014 10.096 0.809833 10.2346 0.94615L19.0346 9.76155C19.3282 10.0551 19.4766 10.4138 19.4798 10.8375C19.483 11.2612 19.341 11.6166 19.0538 11.9038L11.9038 19.0538ZM10.8303 18L17.9846 10.85L9.15428 1.99997H1.99998V9.14997L10.8303 18ZM4.49885 5.74995C4.84575 5.74995 5.14099 5.62853 5.38458 5.3857C5.62816 5.14287 5.74995 4.848 5.74995 4.5011C5.74995 4.1542 5.62853 3.85896 5.3857 3.61537C5.14287 3.37179 4.848 3.25 4.5011 3.25C4.1542 3.25 3.85896 3.37142 3.61538 3.61425C3.37179 3.85708 3.25 4.15195 3.25 4.49885C3.25 4.84575 3.37142 5.14099 3.61425 5.38457C3.85708 5.62816 4.15195 5.74995 4.49885 5.74995Z" fill="#ADD136"/>
</svg>
