<svg width="73" height="72" viewBox="0 0 73 72" fill="none" xmlns="http://www.w3.org/2000/svg">
<path d="M41.1455 58.3496L44.1766 57.017C45.1008 56.6109 46.1834 56.9165 46.7588 57.746L49.1887 61.2493C49.1887 61.2493 52.0225 60.1824 56.3524 55.8525C60.6822 51.5227 61.7491 48.6888 61.7491 48.6888L58.2459 46.259C57.4163 45.6835 57.1108 44.601 57.5169 43.6768L62.8284 31.594C63.2198 30.7039 64.1679 30.1982 65.1258 30.3652C66.2953 30.569 67.86 31.0831 69.1322 32.3552C74.0311 37.2542 71.0622 50.5271 61.0445 60.5446C51.0269 70.5623 37.754 73.5312 32.8551 68.6324C31.583 67.3602 31.0688 65.7954 30.8651 64.626C30.698 63.668 31.2037 62.72 32.0939 62.3286L37.3378 60.0235M13.7308 56.6329C8.78605 51.1793 5.77344 43.9416 5.77344 36.0004C5.77344 19.0305 19.5302 5.27385 36.5 5.27385C38.6213 5.27385 40.6923 5.48872 42.6924 5.89808M31.3339 66.2942C27.6375 65.6684 24.1656 64.3824 21.0437 62.5619M44.6993 34.1377H53.7967L46.5273 50.6747M45.1088 22.4814L32.7152 50.6747M34.8555 34.1377H24.4708C24.4708 34.1377 29.9691 24.1714 30.8764 23.0582C31.794 21.9325 32.6628 22.6347 32.7454 23.6276C32.8281 24.6206 32.7041 39.0185 32.7041 39.0185M23.2735 39.1417L14.8465 39.1158C14.8465 39.1158 15.4575 38.3178 20.7327 30.7804C21.7177 29.3729 22.2601 28.1853 22.4909 27.1904L22.5726 26.5507C22.5726 24.2136 20.678 22.3193 18.3411 22.3193C16.2847 22.3193 14.5709 23.786 14.189 25.7306M65.9783 14.2731C65.9783 18.5541 62.5079 22.0246 58.2268 22.0246M65.9783 14.2731C65.9783 9.99203 62.5079 6.52155 58.2268 6.52155M65.9783 14.2731L71.4453 14.2735M58.2268 22.0246C53.9459 22.0246 50.4753 18.5541 50.4753 14.2731M58.2268 22.0246L58.2269 27.4914M50.4753 14.2731C50.4753 9.99203 53.9459 6.52155 58.2268 6.52155M50.4753 14.2731L45.0083 14.2735M58.2268 6.52155L58.2269 1.05481M54.351 7.55966L51.6177 2.82524M64.9399 18.1486L69.6744 20.8819M51.5137 10.3976L46.7793 7.66422M62.1025 20.9864L64.8359 25.7208M64.9399 10.3976L69.6744 7.66422M62.1025 7.55966L64.8359 2.82524M3.6709 48.8729V54.4979M1.56152 51.6854H5.78027M21.8674 67.2455V70.9453M20.48 69.0958H23.2548M15.022 49.9818C16.9691 50.9613 18.3057 52.976 18.3057 55.3042C18.3057 58.5933 15.6393 61.2598 12.3501 61.2598C10.0219 61.2598 8.00718 59.923 7.02773 57.9761C7.15949 62.1415 10.5754 65.4785 14.7729 65.4785C19.054 65.4785 22.5245 62.0081 22.5245 57.727C22.5245 53.5295 19.1876 50.1136 15.022 49.9818Z" stroke="url(#paint0_linear_368_2792)" stroke-width="2" stroke-miterlimit="10" stroke-linecap="round" stroke-linejoin="round"/>
<defs>
<linearGradient id="paint0_linear_368_2792" x1="1.56152" y1="70.9454" x2="71.4521" y2="1.06162" gradientUnits="userSpaceOnUse">
<stop stop-color="#D0E58B"/>
<stop offset="1" stop-color="#A4C82D"/>
</linearGradient>
</defs>
</svg>
