<svg class="icon icon-menu" viewBox="0 0 14 18" fill="none" xmlns="http://www.w3.org/2000/svg">
<path d="M1.61537 18C1.15512 18 0.770833 17.8458 0.4625 17.5375C0.154167 17.2292 0 16.8449 0 16.3846V5.61538C0 5.15513 0.154167 4.77083 0.4625 4.4625C0.770833 4.15417 1.15512 4 1.61537 4H3.5V3.5C3.5 2.5282 3.84038 1.70192 4.52115 1.02115C5.20192 0.340384 6.0282 0 7 0C7.9718 0 8.79808 0.340384 9.47885 1.02115C10.1596 1.70192 10.5 2.5282 10.5 3.5V4H12.3846C12.8449 4 13.2292 4.15417 13.5375 4.4625C13.8458 4.77083 14 5.15513 14 5.61538V16.3846C14 16.8449 13.8458 17.2292 13.5375 17.5375C13.2292 17.8458 12.8449 18 12.3846 18H1.61537ZM1.61537 17H12.3846C12.5385 17 12.6795 16.9359 12.8077 16.8077C12.9359 16.6795 13 16.5385 13 16.3846V5.61538C13 5.46154 12.9359 5.32052 12.8077 5.1923C12.6795 5.0641 12.5385 5 12.3846 5H10.5V7.5C10.5 7.6423 10.4522 7.76121 10.3567 7.85672C10.2612 7.95224 10.1423 8 10 8C9.85768 8 9.73878 7.95224 9.64328 7.85672C9.54776 7.76121 9.5 7.6423 9.5 7.5V5H4.5V7.5C4.5 7.6423 4.45224 7.76121 4.35673 7.85672C4.26123 7.95224 4.14232 8 4 8C3.85768 8 3.73877 7.95224 3.64327 7.85672C3.54776 7.76121 3.5 7.6423 3.5 7.5V5H1.61537C1.46154 5 1.32052 5.0641 1.1923 5.1923C1.0641 5.32052 1 5.46154 1 5.61538V16.3846C1 16.5385 1.0641 16.6795 1.1923 16.8077C1.32052 16.9359 1.46154 17 1.61537 17ZM4.5 4H9.5V3.5C9.5 2.79615 9.25929 2.20353 8.77787 1.72213C8.29647 1.24071 7.70385 1 7 1C6.29615 1 5.70353 1.24071 5.22213 1.72213C4.74071 2.20353 4.5 2.79615 4.5 3.5V4Z" />
</svg>
