<svg width="21" height="20" viewBox="0 0 21 20" fill="none" xmlns="http://www.w3.org/2000/svg">
<path d="M17.55 2.91018C16.6332 1.98411 15.5412 1.24985 14.3376 0.750233C13.1341 0.250616 11.8431 -0.00435804 10.54 0.00018164C5.07999 0.00018164 0.629988 4.45018 0.629988 9.91018C0.629988 11.6602 1.08999 13.3602 1.94999 14.8602L0.549988 20.0002L5.79999 18.6202C7.24999 19.4102 8.87999 19.8302 10.54 19.8302C16 19.8302 20.45 15.3802 20.45 9.92018C20.45 7.27018 19.42 4.78018 17.55 2.91018ZM10.54 18.1502C9.05999 18.1502 7.60999 17.7502 6.33999 17.0002L6.03999 16.8202L2.91999 17.6402L3.74999 14.6002L3.54999 14.2902C2.72773 12.9772 2.29113 11.4594 2.28999 9.91018C2.28999 5.37018 5.98999 1.67018 10.53 1.67018C12.73 1.67018 14.8 2.53018 16.35 4.09018C17.1175 4.85415 17.7257 5.76284 18.1394 6.76361C18.5531 7.76437 18.764 8.83729 18.76 9.92018C18.78 14.4602 15.08 18.1502 10.54 18.1502ZM15.06 11.9902C14.81 11.8702 13.59 11.2702 13.37 11.1802C13.14 11.1002 12.98 11.0602 12.81 11.3002C12.64 11.5502 12.17 12.1102 12.03 12.2702C11.89 12.4402 11.74 12.4602 11.49 12.3302C11.24 12.2102 10.44 11.9402 9.49999 11.1002C8.75999 10.4402 8.26999 9.63018 8.11999 9.38018C7.97999 9.13018 8.09999 9.00018 8.22999 8.87018C8.33999 8.76018 8.47999 8.58018 8.59999 8.44018C8.71999 8.30018 8.76999 8.19018 8.84999 8.03018C8.92999 7.86018 8.88999 7.72018 8.82999 7.60018C8.76999 7.48018 8.26999 6.26018 8.06999 5.76018C7.86999 5.28018 7.65999 5.34018 7.50999 5.33018H7.02999C6.85999 5.33018 6.59999 5.39018 6.36999 5.64018C6.14999 5.89018 5.50999 6.49018 5.50999 7.71018C5.50999 8.93018 6.39999 10.1102 6.51999 10.2702C6.63999 10.4402 8.26999 12.9402 10.75 14.0102C11.34 14.2702 11.8 14.4202 12.16 14.5302C12.75 14.7202 13.29 14.6902 13.72 14.6302C14.2 14.5602 15.19 14.0302 15.39 13.4502C15.6 12.8702 15.6 12.3802 15.53 12.2702C15.46 12.1602 15.31 12.1102 15.06 11.9902Z" fill="white"/>
</svg>
