<svg width="16" height="21" viewBox="0 0 16 21" fill="none" xmlns="http://www.w3.org/2000/svg">
<path d="M5.79997 11.4884L6.6269 8.77305L4.45193 7.09613H7.15768L7.99997 4.3923L8.84228 7.09613H11.548L9.35765 8.77305L10.1846 11.4884L7.99997 9.79998L5.79997 11.4884ZM2.5 20.2307V13.073C1.86667 12.4115 1.375 11.6468 1.025 10.7788C0.675 9.91088 0.5 8.98459 0.5 7.99997C0.5 5.90767 1.22692 4.13461 2.68077 2.68077C4.13461 1.22692 5.90767 0.5 7.99997 0.5C10.0923 0.5 11.8653 1.22692 13.3192 2.68077C14.773 4.13461 15.5 5.90767 15.5 7.99997C15.5 8.98459 15.325 9.91088 14.975 10.7788C14.625 11.6468 14.1333 12.4115 13.5 13.073V20.2307L7.99997 18.4807L2.5 20.2307ZM7.99997 14C9.66664 14 11.0833 13.4166 12.25 12.25C13.4166 11.0833 14 9.66664 14 7.99997C14 6.33331 13.4166 4.91664 12.25 3.74997C11.0833 2.58331 9.66664 1.99997 7.99997 1.99997C6.33331 1.99997 4.91664 2.58331 3.74997 3.74997C2.58331 4.91664 1.99997 6.33331 1.99997 7.99997C1.99997 9.66664 2.58331 11.0833 3.74997 12.25C4.91664 13.4166 6.33331 14 7.99997 14ZM3.99997 18.0346L7.99997 16.9615L12 18.0346V14.3191C11.4295 14.691 10.8051 14.9807 10.1269 15.1884C9.4487 15.3961 8.73973 15.5 7.99997 15.5C7.26022 15.5 6.55125 15.3961 5.87305 15.1884C5.19485 14.9807 4.57049 14.691 3.99997 14.3191V18.0346Z" fill="white"/>
</svg>
